SplineFontDB: 3.0
FontName: Rozerofo
FullName: Rozerofo
FamilyName: Rozerofo
Weight: Regular
Copyright: Copyright (c) 2017, Kisaragi Hiu\n\nGlyphs of numbers 0..9 are from GenJyuu Gothic version 1.002.20150607.
UComments: "2017-4-29: Created with FontForge (http://fontforge.org)"
Version: 1.2beta
ItalicAngle: -31.4
UnderlinePosition: -102
UnderlineWidth: 51
Ascent: 819
Descent: 205
InvalidEm: 0
LayerCount: 2
Layer: 0 0 "+gMyXYgAA" 1
Layer: 1 0 "+Uk2XYgAA" 0
XUID: [1021 811 1269689650 7253454]
FSType: 0
OS2Version: 0
OS2_WeightWidthSlopeOnly: 0
OS2_UseTypoMetrics: 1
CreationTime: 1493454996
ModificationTime: 1495730461
PfmFamily: 17
TTFWeight: 400
TTFWidth: 5
LineGap: 92
VLineGap: 0
OS2TypoAscent: 0
OS2TypoAOffset: 1
OS2TypoDescent: 0
OS2TypoDOffset: 1
OS2TypoLinegap: 92
OS2WinAscent: 0
OS2WinAOffset: 1
OS2WinDescent: 0
OS2WinDOffset: 1
HheadAscent: 0
HheadAOffset: 1
HheadDescent: 0
HheadDOffset: 1
OS2Vendor: 'PfEd'
Lookup: 1 0 0 "GenJyuuGothic-Regular-'vert' Vertical Alternates (obs) lookup 0" { "GenJyuuGothic-Regular-'vert' Vertical Alternates (obs) lookup 0 subtable"  } ['vert' ('DFLT' <'dflt' > 'cyrl' <'dflt' > 'grek' <'dflt' > 'hani' <'dflt' > 'kana' <'JAN ' 'dflt' > 'latn' <'dflt' > ) ]
Lookup: 1 0 0 "GenJyuuGothic-Regular-'jp90' JIS90 Forms lookup 1" { "GenJyuuGothic-Regular-'jp90' JIS90 Forms lookup 1 subtable"  } ['jp90' ('DFLT' <'dflt' > 'cyrl' <'dflt' > 'grek' <'dflt' > 'hani' <'dflt' > 'kana' <'JAN ' 'dflt' > 'latn' <'dflt' > ) ]
Lookup: 1 0 0 "GenJyuuGothic-Regular-'jp83' JIS83 Forms lookup 2" { "GenJyuuGothic-Regular-'jp83' JIS83 Forms lookup 2 subtable"  } ['jp83' ('DFLT' <'dflt' > 'cyrl' <'dflt' > 'grek' <'dflt' > 'hani' <'dflt' > 'kana' <'JAN ' 'dflt' > 'latn' <'dflt' > ) ]
Lookup: 1 0 0 "GenJyuuGothic-Regular-'jp78' JIS78 Forms lookup 3" { "GenJyuuGothic-Regular-'jp78' JIS78 Forms lookup 3 subtable"  } ['jp78' ('DFLT' <'dflt' > 'cyrl' <'dflt' > 'grek' <'dflt' > 'hani' <'dflt' > 'kana' <'JAN ' 'dflt' > 'latn' <'dflt' > ) ]

StartChar: T
Encoding: 84 84 0
Width: 673
VWidth: 0
Flags: HW
LayerCount: 2
Fore
SplineSet
423 787 m 0
 499 790 507 784 622 775 c 0
 644 773 629 678 623 657 c 0
 620 648 577 648 570 655 c 0
 558 667 584 708 566 709 c 0
 461 714 415 740 413 705 c 0
 395 415 440 186 537 142 c 0
 568 128 542 395 550 398 c 0
 552 399 613 386 617 379 c 0
 623 370 655 11 583 35 c 0
 419 89 343 202 335 736 c 4
 334 793 366 785 423 787 c 0
260 104 m 0
 260 141 273 495 270 467 c 0
 260 377 204 212 137 99 c 0
 127 83 260 83 260 104 c 0
29 53 m 0
 156 266 218 495 260 665 c 0
 269 703 264 710 264 716 c 0
 264 743 175 721 168 721 c 0
 111 721 120 713 91 713 c 0
 79 713 93 678 82 676 c 0
 53 672 27 673 19 677 c 0
 7 683 6 788 38 784 c 0
 130 772 210 801 288 792 c 0
 311 789 334 768 333 759 c 0
 330 705 335 275 335 30 c 0
 335 17 13 26 29 53 c 0
EndSplineSet
Validated: 33
EndChar

StartChar: L
Encoding: 76 76 1
Width: 677
VWidth: 0
Flags: HW
LayerCount: 2
Fore
SplineSet
253 697 m 0
 258 734 160 715 160 715 c 2
 149 718 160 630 149 628 c 0
 120 624 87 627 86 636 c 0
 85 646 79 783 92 783 c 0
 185 786 214 785 290 781 c 0
 313 780 336 755 335 746 c 0
 309 497 255 170 45 34 c 0
 25 21 35 256 35 356 c 0
 35 360 90 359 102 357 c 0
 117 355 98 185 110 205 c 0
 205 363 211 384 253 697 c 0
432 776 m 0
 508 779 516 773 631 764 c 0
 653 762 642 80 635 59 c 0
 632 50 573 50 566 57 c 0
 556 67 574 682 557 685 c 0
 458 703 417 702 417 695 c 0
 417 688 415 145 415 133 c 0
 415 125 456 130 472 133 c 0
 476 134 473 172 474 194 c 0
 474 201 525 195 537 195 c 0
 543 195 541 55 537 52 c 0
 528 46 367 47 342 55 c 0
 317 63 349 191 341 725 c 0
 340 782 375 774 432 776 c 0
EndSplineSet
Validated: 33
EndChar

StartChar: E
Encoding: 69 69 2
Width: 673
VWidth: 0
Flags: HW
LayerCount: 2
Fore
SplineSet
415 348 m 4
 416 319 407 128 425 92 c 0
 434 74 572 102 573 115 c 0
 579 183 574 323 571 362 c 0
 570 374 414 364 415 348 c 4
166 729 m 0
 110 735 115 729 86 729 c 0
 27 729 -27 778 38 784 c 0
 130 793 210 801 288 792 c 0
 311 789 334 768 333 759 c 0
 330 705 314 688 286 660 c 0
 250 624 225 622 224 565 c 0
 222 485 347 478 326 401 c 0
 285 251 138 119 173 111 c 0
 222 100 224 129 302 127 c 0
 327 126 325 45 300 41 c 0
 199 26 13 5 36 43 c 0
 155 238 229 338 244 397 c 0
 254 438 124 512 140 573 c 0
 152 618 162 640 196 672 c 0
 278 749 202 725 166 729 c 0
430 787 m 0
 506 790 514 784 629 775 c 0
 651 773 636 678 630 657 c 0
 627 648 584 648 577 655 c 0
 565 667 591 708 573 709 c 0
 468 714 421 727 419 692 c 0
 410 513 414 473 422 439 c 0
 429 409 484 438 517 439 c 0
 551 440 627 455 631 430 c 0
 635 409 660 43 605 42 c 0
 512 40 353 -13 345 42 c 0
 336 103 343 531 339 736 c 0
 338 793 373 785 430 787 c 0
EndSplineSet
Validated: 33
EndChar

StartChar: F
Encoding: 70 70 3
Width: 673
VWidth: 0
Flags: HW
LayerCount: 2
Fore
SplineSet
142 709 m 0
 168 407 144 115 85 41 c 0
 61 11 14 62 40 94 c 4
 86 149 85 518 64 717 c 4
 61 748 51 807 92 808 c 0
 164 810 121 777 151 774 c 0
 327 757 394 771 571 761 c 0
 607 759 654 782 650 746 c 0
 644 691 647 649 646 589 c 0
 645 556 580 548 573 581 c 0
 545 718 587 672 573 688 c 0
 543 722 459 692 364 698 c 0
 339 700 337 591 338 451 c 0
 338 430 568 444 568 422 c 0
 568 417 556 200 654 48 c 0
 658 42 614 11 589 44 c 0
 475 189 512 363 493 359 c 0
 448 350 340 368 340 362 c 0
 342 253 342 119 335 30 c 0
 267 43 l 0
 255 58 268 397 263 698 c 0
 263 726 141 717 142 709 c 0
EndSplineSet
Validated: 33
EndChar

StartChar: K
Encoding: 75 75 4
Width: 673
VWidth: 0
Flags: HW
LayerCount: 2
Fore
SplineSet
595 798 m 0
 589 723 539 209 652 82 c 0
 657 77 579 40 575 46 c 0
 460 228 510 637 501 730 c 0
 499 750 377 739 379 737 c 0
 399 715 458 157 345 47 c 0
 333 35 289 117 294 126 c 0
 382 288 298 790 299 795 c 0
 303 811 596 806 595 798 c 0
110 114 m 0
 110 111 248 129 273 116 c 0
 300 102 286 48 280 46 c 0
 261 40 31 36 31 45 c 0
 33 164 21 776 27 795 c 0
 32 811 237 800 243 802 c 0
 247 803 246 649 234 617 c 0
 229 604 204 614 187 622 c 0
 172 629 181 739 176 742 c 0
 154 755 103 739 103 736 c 0
 100 682 110 359 110 114 c 0
EndSplineSet
Validated: 33
EndChar

StartChar: J
Encoding: 74 74 6
Width: 677
VWidth: 0
Flags: HW
LayerCount: 2
Fore
SplineSet
254 713 m 0
 260 750 92 716 58 729 c 0
 44 734 43 775 66 785 c 0
 98 799 220 786 292 792 c 0
 315 794 338 766 337 757 c 0
 311 508 249 190 76 41 c 0
 62 29 6 81 31 110 c 0
 160 259 204 379 254 713 c 0
434 787 m 0
 510 790 518 785 633 775 c 0
 655 773 644 91 637 70 c 0
 634 61 571 68 564 75 c 0
 554 85 573 705 556 704 c 0
 477 701 432 721 422 708 c 0
 416 701 408 97 400 77 c 0
 389 50 390 47 344 66 c 0
 320 76 351 202 343 736 c 0
 342 793 377 785 434 787 c 0
EndSplineSet
Validated: 33
EndChar

StartChar: I
Encoding: 73 73 7
Width: 673
VWidth: 0
Flags: HW
LayerCount: 2
Fore
SplineSet
36 43 m 4
 70 254 94 422 117 708 c 4
 119 732 98 706 46 708 c 4
 15 709 37 766 60 788 c 4
 77 804 184 800 199 779 c 4
 217 754 180 312 138 124 c 4
 131 93 241 113 319 111 c 4
 344 110 348 38 323 34 c 4
 222 19 29 -1 36 43 c 4
626 43 m 4
 626 20 560 9 559 31 c 4
 550 170 559 454 549 480 c 4
 545 490 422 484 421 480 c 4
 414 455 423 193 424 37 c 4
 424 13 355 10 352 42 c 4
 346 103 330 734 338 769 c 4
 345 801 392 784 410 781 c 4
 432 777 409 552 421 551 c 4
 438 550 520 555 541 561 c 4
 561 567 550 622 559 757 c 4
 562 808 626 777 627 763 c 4
 636 604 631 318 626 43 c 4
EndSplineSet
Validated: 33
EndChar

StartChar: H
Encoding: 72 72 8
Width: 673
VWidth: 0
Flags: HW
LayerCount: 2
Fore
SplineSet
176 793 m 0
 193 800 314 818 315 791 c 0
 323 499 320 189 307 36 c 0
 304 0 45 16 33 34 c 0
 12 64 96 220 50 323 c 0
 38 351 99 390 102 385 c 0
 179 252 110 137 126 105 c 4
 137 83 215 77 237 99 c 0
 251 113 248 525 241 714 c 0
 240 728 173 718 169 729 c 0
 165 740 165 789 176 793 c 0
648 40 m 0
 656 18 581 6 566 27 c 0
 549 50 541 238 531 264 c 0
 527 274 406 266 405 262 c 0
 398 237 407 197 408 41 c 0
 408 17 330 15 327 47 c 0
 321 108 321 749 329 784 c 0
 336 816 376 783 394 780 c 0
 416 776 393 329 405 328 c 0
 422 327 512 334 533 340 c 0
 553 346 514 702 533 757 c 0
 550 805 600 777 601 763 c 0
 607 651 616 454 616 258 c 0
 616 220 625 100 648 40 c 0
EndSplineSet
Validated: 33
EndChar

StartChar: A
Encoding: 65 65 9
Width: 673
VWidth: 0
Flags: HW
LayerCount: 2
Fore
SplineSet
282 722 m 0
 181 724 118 734 122 709 c 0
 149 532 340 549 301 458 c 0
 274 396 106 124 132 120 c 0
 171 114 246 107 262 120 c 0
 277 132 271 209 271 231 c 0
 271 256 354 253 354 238 c 0
 354 178 361 52 336 51 c 0
 255 48 192 26 42 52 c 0
 -28 64 114 289 208 457 c 0
 237 509 41 494 21 784 c 0
 20 798 225 793 308 791 c 0
 344 790 318 721 282 722 c 0
423 787 m 0
 499 790 507 784 622 775 c 0
 644 773 630 678 623 657 c 0
 620 648 560 649 561 659 c 0
 563 686 575 712 557 713 c 0
 452 718 413 740 413 705 c 0
 413 484 445 281 538 178 c 4
 561 153 547 385 555 389 c 0
 557 390 618 377 622 370 c 0
 628 361 627 25 583 35 c 0
 367 84 328 520 332 736 c 0
 333 793 366 785 423 787 c 0
EndSplineSet
Validated: 33
EndChar

StartChar: cid00017
Encoding: 48 48 18
Width: 568
GlyphClass: 2
Flags: HW
LayerCount: 2
Fore
SplineSet
285 -13 m 0
 212 -13 154 20 112 86 c 128
 70 152 50 250 50 378 c 0
 50 505 71 602 112 667 c 128
 153 732 211 765 285 765 c 0
 358 765 415 732 456 667 c 128
 497 602 518 505 518 378 c 0
 518 250 497 152 456 86 c 128
 415 20 358 -13 285 -13 c 0
285 61 m 0
 329 61 364 88 389 140 c 128
 414 192 427 271 427 378 c 0
 427 483 414 561 389 612 c 128
 364 663 329 689 285 689 c 0
 240 689 204 663 179 612 c 128
 154 561 141 483 141 378 c 0
 141 271 154 192 179 140 c 128
 204 88 240 61 285 61 c 0
EndSplineSet
Validated: 1
EndChar

StartChar: cid00018
Encoding: 49 49 19
Width: 568
GlyphClass: 2
Flags: HW
LayerCount: 2
Fore
SplineSet
129 0 m 2
 118 0 110 4 102 12 c 128
 94 20 90 28 90 39 c 128
 90 50 94 58 102 66 c 128
 110 74 118 78 129 78 c 2
 250 78 l 2
 255 78 257 80 257 85 c 2
 257 630 l 2
 257 635 255 638 250 638 c 2
 154 638 l 2
 145 638 138 640 132 646 c 128
 126 652 124 659 124 668 c 0
 124 676 127 683 132 690 c 128
 137 697 144 701 153 703 c 0
 188 711 220 721 248 734 c 0
 272 745 294 751 315 751 c 0
 325 751 333 747 340 740 c 128
 347 733 351 725 351 715 c 2
 351 85 l 2
 351 80 354 78 359 78 c 2
 463 78 l 2
 474 78 482 74 490 66 c 128
 498 58 502 50 502 39 c 128
 502 28 498 20 490 12 c 128
 482 4 474 0 463 0 c 2
 129 0 l 2
EndSplineSet
Validated: 1
EndChar

StartChar: cid00019
Encoding: 50 50 20
Width: 568
GlyphClass: 2
Flags: HW
LayerCount: 2
Fore
SplineSet
73 0 m 2
 65 0 58 3 53 8 c 128
 48 13 45 20 45 28 c 0
 45 46 52 61 66 74 c 0
 177 173 259 259 311 334 c 128
 363 409 389 477 389 540 c 0
 389 585 378 621 354 648 c 128
 330 675 295 688 250 688 c 128
 205 688 162 668 121 629 c 0
 114 622 104 618 94 618 c 128
 84 618 75 621 68 628 c 256
 61 635 56 644 56 654 c 128
 56 664 60 674 68 681 c 0
 127 737 191 765 262 765 c 0
 329 765 382 744 421 704 c 128
 460 664 480 610 480 543 c 0
 480 473 455 401 406 326 c 128
 357 251 285 168 192 79 c 0
 191 78 190 77 191 76 c 128
 192 75 193 74 194 74 c 0
 249 79 287 81 309 81 c 2
 477 81 l 2
 488 81 497 77 505 69 c 128
 513 61 517 51 517 40 c 128
 517 29 513 20 505 12 c 128
 497 4 488 0 477 0 c 2
 73 0 l 2
EndSplineSet
Validated: 1
EndChar

StartChar: three
Encoding: 51 51 21
Width: 568
GlyphClass: 2
Flags: HW
LayerCount: 2
Fore
SplineSet
270 -13 m 0
 186 -13 115 12 57 62 c 0
 48 70 44 80 44 93 c 0
 44 103 47 112 53 120 c 128
 59 128 68 132 78 133 c 128
 88 134 97 131 105 124 c 0
 152 85 204 65 263 65 c 0
 308 65 346 77 374 102 c 128
 402 127 416 161 416 204 c 0
 416 297 350 346 218 353 c 0
 208 354 199 357 192 364 c 128
 185 371 182 380 182 390 c 128
 182 400 185 409 192 416 c 128
 199 423 208 426 218 427 c 0
 278 432 322 447 349 472 c 128
 376 497 390 529 390 569 c 0
 390 606 379 634 356 656 c 128
 333 678 302 689 263 690 c 0
 219 689 177 672 137 641 c 0
 128 634 119 631 108 632 c 128
 97 633 89 637 82 645 c 256
 75 653 72 663 73 674 c 128
 74 685 78 693 87 700 c 0
 142 743 202 765 267 765 c 256
 332 765 384 748 424 715 c 128
 464 682 485 636 485 577 c 0
 485 533 473 496 450 465 c 128
 427 434 394 411 353 396 c 0
 352 395 351 394 351 393 c 128
 351 392 352 391 353 391 c 0
 400 380 438 357 467 324 c 128
 496 291 511 250 511 201 c 0
 511 136 488 84 442 45 c 128
 396 6 339 -13 270 -13 c 0
EndSplineSet
Validated: 1
EndChar

StartChar: cid00026
Encoding: 57 57 22
Width: 568
GlyphClass: 2
Flags: HW
LayerCount: 2
Fore
SplineSet
267 354 m 0
 323 354 374 386 420 449 c 0
 423 453 424 457 423 462 c 0
 418 537 401 593 373 632 c 128
 345 671 307 691 260 691 c 0
 223 691 193 675 169 644 c 128
 145 613 133 572 133 521 c 0
 133 469 145 428 168 398 c 128
 191 368 224 354 267 354 c 0
88 37 m 0
 79 44 74 53 74 64 c 128
 74 75 78 84 85 93 c 0
 92 100 100 104 111 104 c 128
 122 104 131 102 139 96 c 0
 169 75 202 65 237 65 c 0
 290 65 334 90 368 138 c 128
 402 186 421 263 425 370 c 0
 425 371 424 372 423 372 c 128
 422 372 421 373 420 372 c 0
 397 345 372 324 342 308 c 128
 312 292 282 285 252 285 c 0
 188 285 137 305 100 346 c 128
 63 387 45 445 45 521 c 0
 45 592 66 650 108 696 c 128
 150 742 200 765 260 765 c 0
 335 765 396 734 442 673 c 128
 488 612 512 523 512 408 c 0
 512 335 505 270 490 214 c 128
 475 158 454 114 428 82 c 128
 402 50 374 26 342 10 c 128
 310 -6 277 -13 240 -13 c 0
 182 -13 131 4 88 37 c 0
EndSplineSet
Validated: 1
EndChar

StartChar: cid00025
Encoding: 56 56 23
Width: 568
GlyphClass: 2
Flags: HW
LayerCount: 2
Fore
SplineSet
286 -13 m 256
 217 -13 159 6 114 44 c 128
 69 82 46 129 46 186 c 0
 46 232 59 273 85 308 c 128
 111 343 143 371 182 392 c 0
 183 393 184 394 184 396 c 128
 184 398 183 399 182 400 c 0
 116 446 83 503 83 571 c 0
 83 628 102 674 141 709 c 128
 180 744 229 762 289 762 c 0
 352 762 402 744 439 707 c 128
 476 670 495 623 495 564 c 0
 495 529 486 496 466 464 c 128
 446 432 423 406 396 385 c 0
 395 384 394 382 394 380 c 128
 394 378 395 378 396 377 c 0
 479 328 521 263 521 181 c 0
 521 126 500 79 456 42 c 128
 412 5 355 -13 286 -13 c 256
330 410 m 0
 335 409 339 410 342 413 c 0
 391 457 415 506 415 559 c 0
 415 597 403 628 380 654 c 128
 357 680 326 693 287 693 c 0
 252 693 224 682 202 660 c 128
 180 638 168 608 168 571 c 0
 168 550 172 531 180 514 c 128
 188 497 201 483 218 470 c 128
 235 457 251 447 268 438 c 128
 285 429 305 420 330 410 c 0
288 56 m 0
 331 56 365 68 392 92 c 128
 419 116 432 146 432 183 c 0
 432 202 428 220 421 236 c 128
 414 252 405 265 395 276 c 128
 385 287 371 298 352 309 c 128
 333 320 316 329 301 336 c 128
 286 343 266 351 240 362 c 0
 239 363 237 363 235 363 c 0
 232 363 230 362 227 360 c 0
 198 340 174 316 157 288 c 128
 140 260 131 228 131 195 c 0
 131 155 146 122 176 96 c 128
 206 70 243 56 288 56 c 0
EndSplineSet
Validated: 1
EndChar

StartChar: cid00024
Encoding: 55 55 24
Width: 568
GlyphClass: 2
Flags: HW
LayerCount: 2
Fore
SplineSet
302 49 m 0
 301 35 296 23 286 14 c 128
 276 5 265 0 251 0 c 0
 238 0 227 5 218 14 c 256
 209 23 205 34 205 45 c 0
 205 152 224 264 263 383 c 0
 294 477 343 571 409 665 c 0
 410 666 411 668 410 669 c 128
 409 670 408 671 406 671 c 2
 90 671 l 2
 79 671 70 674 62 682 c 128
 54 690 50 699 50 710 c 128
 50 721 54 731 62 739 c 128
 70 747 79 751 90 751 c 2
 492 751 l 2
 500 751 507 748 512 742 c 128
 517 736 520 730 520 722 c 0
 520 704 514 687 503 672 c 0
 431 575 382 481 354 390 c 128
 326 299 309 186 302 49 c 0
EndSplineSet
Validated: 1
EndChar

StartChar: cid00021
Encoding: 52 52 25
Width: 568
GlyphClass: 2
Flags: HW
LayerCount: 2
Fore
SplineSet
122 288 m 2
 121 287 121 285 122 284 c 128
 123 283 124 282 125 282 c 2
 340 282 l 2
 345 282 347 284 347 289 c 2
 347 512 l 2
 347 526 349 571 353 646 c 0
 353 647 352 648 351 648 c 128
 350 648 349 647 348 646 c 0
 332 614 312 578 289 538 c 1
 122 288 l 2
498 282 m 2
 509 282 518 278 525 271 c 128
 532 264 536 254 536 244 c 128
 536 234 532 225 525 218 c 128
 518 211 509 207 498 207 c 2
 444 207 l 2
 439 207 436 204 436 199 c 2
 436 45 l 2
 436 32 432 22 423 13 c 128
 414 4 404 0 392 0 c 128
 380 0 369 4 360 13 c 128
 351 22 347 32 347 45 c 2
 347 199 l 2
 347 204 345 207 340 207 c 2
 51 207 l 2
 42 207 35 210 29 216 c 128
 23 222 20 229 20 238 c 0
 20 258 26 277 37 294 c 2
 305 707 l 2
 324 736 350 751 385 751 c 0
 399 751 411 746 421 736 c 128
 431 726 436 713 436 699 c 2
 436 289 l 2
 436 284 439 282 444 282 c 2
 498 282 l 2
EndSplineSet
Validated: 1
EndChar

StartChar: five
Encoding: 53 53 26
Width: 568
GlyphClass: 2
Flags: HW
LayerCount: 2
Fore
SplineSet
267 -13 m 0
 186 -13 116 11 57 60 c 0
 48 68 43 78 43 91 c 0
 43 100 46 109 52 117 c 256
 58 125 66 129 76 130 c 128
 86 131 95 128 103 121 c 0
 149 84 201 65 259 65 c 0
 304 65 342 82 373 114 c 128
 404 146 419 189 419 242 c 256
 419 295 404 338 376 368 c 128
 348 398 310 413 263 413 c 0
 229 413 196 403 163 384 c 0
 154 379 146 377 137 377 c 0
 129 377 121 379 113 384 c 0
 96 394 89 409 90 429 c 2
 108 692 l 2
 109 709 116 723 128 734 c 128
 140 745 154 751 171 751 c 2
 437 751 l 2
 448 751 458 747 466 739 c 128
 474 731 477 721 477 710 c 128
 477 699 474 690 466 682 c 128
 458 674 448 671 437 671 c 2
 201 671 l 2
 196 671 194 668 193 663 c 2
 176 461 l 2
 176 460 177 459 178 458 c 128
 179 457 181 456 182 457 c 0
 215 474 250 483 287 483 c 0
 353 483 408 463 450 423 c 128
 492 383 513 324 513 245 c 0
 513 192 502 145 478 105 c 128
 454 65 424 35 387 16 c 128
 350 -3 310 -13 267 -13 c 0
EndSplineSet
Validated: 33
EndChar

StartChar: cid00023
Encoding: 54 54 27
Width: 568
GlyphClass: 2
Flags: HW
LayerCount: 2
Fore
SplineSet
308 59 m 0
 345 59 375 75 399 107 c 128
 423 139 435 180 435 230 c 0
 435 282 424 323 401 352 c 128
 378 381 345 396 300 396 c 0
 245 396 195 366 151 306 c 0
 148 302 146 298 147 293 c 0
 153 217 170 159 198 119 c 128
 226 79 262 59 308 59 c 0
482 715 m 0
 490 708 494 699 494 688 c 128
 494 677 491 667 484 659 c 0
 477 652 468 648 458 648 c 128
 448 648 439 650 431 656 c 0
 403 677 372 687 338 687 c 0
 282 687 237 662 202 614 c 128
 167 566 148 489 145 382 c 0
 144 381 145 380 146 380 c 128
 147 380 148 379 149 380 c 0
 172 407 199 428 228 443 c 128
 257 458 286 466 315 466 c 0
 380 466 431 446 468 406 c 128
 505 366 523 307 523 230 c 0
 523 159 502 102 460 56 c 128
 418 10 368 -13 308 -13 c 0
 233 -13 172 18 126 82 c 128
 80 146 57 238 57 358 c 0
 57 429 65 492 80 546 c 128
 95 600 116 641 142 672 c 128
 168 703 198 727 230 742 c 128
 262 757 297 765 335 765 c 0
 391 765 440 748 482 715 c 0
EndSplineSet
Validated: 1
EndChar

StartChar: G
Encoding: 71 71 28
Width: 673
VWidth: 0
Flags: HW
LayerCount: 2
Fore
SplineSet
146 320 m 0
 143 320 138 126 143 126 c 0
 369 132 397 130 555 133 c 0
 561 133 564 316 563 319 c 0
 561 324 158 320 146 320 c 0
142 695 m 0
 144 585 144 494 144 421 c 0
 144 387 644 407 644 371 c 0
 643 299 653 47 625 51 c 0
 587 56 55 22 56 63 c 0
 62 384 49 769 68 770 c 0
 145 772 539 762 620 759 c 0
 632 759 647 641 645 581 c 0
 644 548 574 538 564 570 c 4
 549 616 556 662 542 678 c 0
 532 689 142 697 142 695 c 0
EndSplineSet
Validated: 33
EndChar

StartChar: B
Encoding: 66 66 30
Width: 673
VWidth: 0
Flags: HW
LayerCount: 2
Fore
SplineSet
176 793 m 4
 193 800 314 818 315 791 c 4
 323 499 320 189 307 36 c 4
 304 0 45 16 33 34 c 4
 12 64 103 317 41 411 c 4
 24 436 96 498 99 493 c 4
 188 360 98 133 113 101 c 4
 124 79 215 77 237 99 c 4
 251 113 248 525 241 714 c 4
 240 728 173 718 169 729 c 4
 165 740 165 789 176 793 c 4
632 626 m 4
 633 603 574 601 559 622 c 4
 542 645 562 685 552 711 c 4
 548 721 411 714 410 710 c 4
 404 689 405 381 406 177 c 4
 406 156 524 324 568 324 c 4
 576 324 597 328 630 321 c 4
 640 319 633 91 630 43 c 4
 628 9 564 30 562 32 c 4
 556 37 562 227 556 220 c 4
 518 173 408 46 408 41 c 4
 408 17 330 15 327 47 c 4
 321 108 321 749 329 784 c 4
 336 816 600 790 618 790 c 4
 644 790 630 698 632 626 c 4
EndSplineSet
Validated: 33
EndChar

StartChar: C
Encoding: 67 67 31
Width: 673
VWidth: 0
Flags: HW
LayerCount: 2
Fore
SplineSet
327 369 m 0
 323 345 326 191 329 107 c 0
 329 94 479 87 515 105 c 0
 519 107 512 292 513 359 c 0
 514 389 330 387 327 369 c 0
198 764 m 0
 214 462 188 207 142 109 c 0
 140 106 249 102 249 102 c 0
 249 352 251 478 249 764 c 0
 249 795 324 793 325 762 c 0
 327 668 328 641 330 449 c 0
 330 428 549 433 568 422 c 0
 599 403 585 203 597 32 c 1
 597 32 10 14 31 48 c 0
 77 124 144 462 120 760 c 0
 118 787 197 791 198 764 c 0
EndSplineSet
Validated: 33
EndChar

StartChar: S
Encoding: 83 83 34
Width: 673
VWidth: 0
Flags: HW
LayerCount: 2
Fore
SplineSet
602 785 m 1
 602 785 391 105 425 101 c 0
 433 100 503 102 542 102 c 4
 551 102 540 133 549 198 c 0
 551 212 617 211 619 194 c 0
 627 122 631 26 629 26 c 0
 548 25 333 -11 327 47 c 0
 321 108 477 675 503 715 c 0
 513 731 328 742 327 714 c 0
 319 388 319 176 307 36 c 0
 304 0 45 16 33 34 c 0
 12 64 117 198 55 292 c 0
 38 317 110 379 113 374 c 0
 202 241 112 142 127 110 c 0
 138 88 205 88 227 110 c 0
 241 124 254 525 241 714 c 0
 240 728 134 713 130 724 c 0
 126 735 126 783 137 788 c 0
 151 794 580 821 602 785 c 1
EndSplineSet
Validated: 33
EndChar

StartChar: D
Encoding: 68 68 36
Width: 673
VWidth: 0
Flags: HW
LayerCount: 2
Fore
SplineSet
380 656 m 5
 376 655 375 420 374 406 c 5
 453 404 504 410 511 410 c 0
 513 410 514 663 511 665 c 0
 506 668 443 652 380 656 c 5
594 786 m 0
 591 348 590 284 646 40 c 0
 654 4 578 5 565 40 c 0
 551 78 520 152 516 334 c 0
 516 355 160 348 160 342 c 0
 152 134 137 136 100 25 c 0
 99 22 18 10 31 48 c 0
 59 130 104 453 80 751 c 0
 78 778 156 782 158 755 c 0
 159 748 159 740 160 733 c 0
 161 724 509 729 516 729 c 4
 517 729 513 774 519 782 c 0
 525 789 594 793 594 786 c 0
305 661 m 5
 238 666 163 658 163 655 c 0
 164 631 161 437 162 412 c 0
 162 407 248 417 310 410 c 5
 307 412 316 664 305 661 c 5
EndSplineSet
Validated: 33
EndChar

StartChar: O
Encoding: 79 79 38
Width: 673
VWidth: 0
Flags: HW
LayerCount: 2
Fore
SplineSet
382 696 m 0
 384 457 374 335 371 107 c 0
 371 92 541 99 539 106 c 4
 508 236 496 534 500 692 c 0
 500 698 382 706 382 696 c 0
279 760 m 0
 251 717 169 516 131 460 c 0
 112 432 314 331 272 263 c 0
 192 135 161 112 197 109 c 0
 221 107 202 107 285 109 c 0
 307 109 304 763 326 764 c 0
 351 765 577 781 577 758 c 0
 572 518 562 292 635 30 c 0
 639 17 20 18 29 34 c 0
 148 234 150 213 174 266 c 0
 191 304 25 420 36 434 c 0
 82 492 173 734 205 768 c 0
 224 788 292 780 279 760 c 0
EndSplineSet
Validated: 33
EndChar

StartChar: U
Encoding: 85 85 39
Width: 673
VWidth: 0
Flags: HW
LayerCount: 2
Fore
SplineSet
649 794 m 0
 672 794 660 681 659 642 c 0
 659 634 605 629 586 639 c 0
 576 644 590 711 567 709 c 4
 503 703 436 715 436 698 c 0
 441 437 439 154 444 100 c 0
 446 80 528 94 564 98 c 0
 572 99 561 163 569 165 c 0
 596 170 636 172 637 164 c 0
 642 105 649 27 637 26 c 0
 505 18 351 9 351 35 c 0
 351 339 347 397 355 786 c 0
 355 804 532 796 649 794 c 0
43 650 m 0
 33 652 32 792 46 792 c 0
 138 792 335 799 333 785 c 0
 279 469 132 426 179 389 c 0
 331 269 379 25 308 22 c 0
 150 15 81 22 34 22 c 0
 13 22 22 102 38 101 c 0
 59 100 177 92 216 98 c 0
 242 102 253 204 98 353 c 0
 27 422 191 511 232 710 c 0
 236 730 194 728 122 725 c 0
 115 725 115 655 112 654 c 0
 92 648 53 648 43 650 c 0
EndSplineSet
Validated: 33
EndChar

StartChar: M
Encoding: 77 77 42
Width: 673
VWidth: 0
Flags: HW
LayerCount: 2
Fore
SplineSet
442 721 m 0
 296 727 189 738 193 708 c 0
 220 487 215 347 85 41 c 0
 70 6 27 55 40 94 c 0
 117 336 162 453 121 774 c 0
 118 794 574 792 558 767 c 0
 547 750 430 527 322 437 c 0
 322 437 368 361 544 289 c 0
 557 284 333 109 328 99 c 0
 319 81 559 88 564 97 c 0
 574 115 567 166 568 211 c 0
 568 223 638 225 639 220 c 0
 642 198 653 38 637 36 c 0
 577 30 172 20 170 29 c 0
 159 82 448 280 426 289 c 0
 262 357 234 439 234 439 c 0
 318 503 452 721 442 721 c 0
EndSplineSet
Validated: 33
EndChar

StartChar: N
Encoding: 78 78 44
Width: 673
VWidth: 0
Flags: HW
LayerCount: 2
Fore
SplineSet
512 798 m 0
 531 788 517 730 504 733 c 0
 482 738 409 752 410 729 c 0
 422 473 416 380 410 98 c 0
 410 84 448 101 536 95 c 0
 566 93 462 203 576 382 c 0
 586 398 661 347 646 335 c 0
 522 234 658 21 639 21 c 0
 515 21 330 6 330 28 c 0
 332 214 340 486 340 790 c 0
 340 806 472 819 512 798 c 0
307 36 m 0
 304 0 232 3 237 34 c 0
 239 50 242 178 243 298 c 0
 243 314 157 206 101 32 c 0
 97 18 33 19 35 34 c 0
 67 232 243 385 243 400 c 0
 243 416 243 432 243 448 c 0
 243 467 49 510 41 776 c 0
 40 796 106 805 107 786 c 0
 121 544 243 530 243 548 c 0
 243 612 245 741 243 782 c 0
 242 803 315 824 315 791 c 0
 313 484 320 189 307 36 c 0
EndSplineSet
Validated: 33
EndChar

StartChar: R
Encoding: 82 82 46
Width: 673
VWidth: 0
Flags: HW
LayerCount: 2
Fore
SplineSet
330 760 m 0
 332 777 434 804 436 766 c 0
 436 757 428 123 428 114 c 0
 428 109 564 106 576 113 c 0
 586 119 574 204 584 207 c 0
 597 211 651 215 652 199 c 0
 654 175 658 43 646 42 c 0
 577 37 342 27 343 42 c 0
 348 111 357 513 357 510 c 4
 315 77 38 52 38 52 c 0
 74 130 134 459 104 756 c 4
 101 783 198 791 198 764 c 0
 200 465 195 324 163 204 c 0
 162 201 269 245 330 760 c 0
EndSplineSet
Validated: 33
EndChar

StartChar: Z
Encoding: 90 90 48
Width: 673
VWidth: 0
Flags: HW
LayerCount: 2
Fore
SplineSet
311 263 m 0
 293 252 240 185 206 137 c 0
 206 137 357 134 404 134 c 0
 425 134 324 271 311 263 c 0
217 515 m 0
 217 515 294 380 309 401 c 0
 366 477 522 695 489 694 c 0
 377 691 160 684 150 679 c 4
 131 669 144 602 139 584 c 4
 130 551 57 548 56 581 c 0
 54 641 52 759 64 759 c 0
 145 762 556 772 633 770 c 0
 652 770 639 384 645 63 c 0
 646 22 601 30 568 49 c 0
 549 60 563 167 557 421 c 0
 557 439 557 535 558 629 c 0
 558 644 464 472 364 346 c 0
 361 342 594 47 474 53 c 0
 448 54 81 42 65 49 c 0
 49 57 269 321 253 333 c 0
 232 349 174 435 159 449 c 0
 144 463 217 513 217 515 c 0
EndSplineSet
Validated: 33
EndChar

StartChar: W
Encoding: 87 87 50
Width: 673
VWidth: 0
Flags: HW
LayerCount: 2
Fore
SplineSet
266 763 m 0
 268 780 354 803 372 769 c 0
 452 618 532 526 651 510 c 0
 659 509 549 230 488 108 c 0
 485 103 564 109 586 108 c 0
 590 108 586 144 586 166 c 0
 586 174 649 174 655 168 c 0
 661 162 670 36 660 36 c 0
 582 34 389 36 386 40 c 0
 376 52 572 453 554 456 c 0
 454 470 371 654 371 634 c 0
 373 307 369 154 362 52 c 0
 360 24 276 36 277 51 c 0
 280 83 294 524 293 513 c 0
 245 34 27 41 27 41 c 0
 63 119 114 429 64 753 c 0
 60 780 156 788 158 761 c 0
 172 551 183 385 153 251 c 0
 152 247 193 256 266 763 c 0
EndSplineSet
Validated: 33
EndChar

StartChar: V
Encoding: 86 86 52
Width: 673
VWidth: 0
Flags: HW
LayerCount: 2
Fore
SplineSet
345 49 m 0
 346 21 259 33 260 48 c 0
 266 129 272 569 272 566 c 0
 232 232 129 32 104 32 c 0
 77 32 11 20 26 40 c 0
 60 84 198 256 234 766 c 0
 235 783 344 809 344 766 c 0
 348 314 342 154 345 49 c 0
655 784 m 0
 654 776 520 299 481 177 c 0
 479 171 604 339 614 321 c 4
 623 305 662 129 662 59 c 0
 662 49 595 49 593 57 c 0
 587 79 582 188 572 177 c 0
 522 124 470 44 462 42 c 0
 413 31 371 35 369 37 c 0
 359 49 550 689 546 707 c 0
 544 716 390 710 373 712 c 0
 363 713 364 771 371 776 c 0
 388 788 656 792 655 784 c 0
EndSplineSet
Validated: 33
EndChar

StartChar: P
Encoding: 80 80 54
Width: 671
VWidth: 0
Flags: HW
LayerCount: 2
Fore
SplineSet
118 449 m 0
 108 448 122 40 108 39 c 0
 96 38 54 38 38 37 c 0
 16 36 31 527 31 527 c 0
 74 529 254 521 254 528 c 0
 254 535 256 674 256 686 c 0
 256 694 112 687 51 685 c 0
 10 684 13 759 29 770 c 0
 38 776 323 773 329 764 c 0
 338 750 334 455 323 455 c 0
 292 455 191 453 118 449 c 0
544 35 m 0
 468 32 460 37 345 47 c 0
 323 49 331 336 338 357 c 0
 341 366 400 366 407 359 c 0
 417 349 402 129 419 126 c 0
 518 108 559 109 559 116 c 0
 559 123 561 666 561 678 c 0
 561 686 458 681 442 678 c 0
 438 677 441 639 440 617 c 0
 440 610 389 616 377 616 c 0
 371 616 373 756 377 759 c 0
 386 765 609 764 634 756 c 0
 659 748 627 620 635 86 c 0
 636 29 601 37 544 35 c 0
EndSplineSet
Validated: 33
EndChar

StartChar: Y
Encoding: 89 89 56
Width: 673
VWidth: 0
Flags: HW
LayerCount: 2
Fore
SplineSet
121 774 m 0
 116 822 191 799 194 771 c 0
 212 621 228 480 188 309 c 0
 187 304 434 176 534 115 c 0
 543 109 476 221 542 329 c 0
 549 340 306 476 282 537 c 0
 268 574 530 764 536 767 c 0
 564 779 587 716 570 693 c 0
 548 663 378 558 390 545 c 0
 433 499 645 366 642 363 c 0
 508 217 658 26 645 25 c 0
 607 22 560 24 556 25 c 0
 506 43 166 226 162 213 c 0
 144 151 129 109 98 37 c 0
 83 2 27 55 40 94 c 0
 117 336 154 455 121 774 c 0
EndSplineSet
Validated: 33
EndChar

StartChar: comma
Encoding: 44 44 59
Width: 673
VWidth: 0
Flags: HWO
LayerCount: 2
Fore
SplineSet
61 138 m 4
 60 144 122 174 124 168 c 4
 139 122 177 51 210 11 c 4
 213 8 162 -36 159 -33 c 4
 121 7 73 88 61 138 c 4
EndSplineSet
EndChar

StartChar: period
Encoding: 46 46 60
Width: 673
VWidth: 0
Flags: HW
LayerCount: 2
Fore
SplineSet
124 93 m 16
 149 93 170 114 169 139 c 28
 168 165 148 187 121 187 c 0
 97 187 76 166 76 141 c 8
 76 115 98 94 124 93 c 16
45 143 m 0
 45 184 78 218 119 218 c 0
 164 218 200 182 201 138 c 16
 201 96 166 62 124 62 c 8
 79 63 45 98 45 143 c 0
EndSplineSet
Validated: 33
EndChar
